<svg width="60" height="60" viewBox="0 0 60 60" fill="none" xmlns="http://www.w3.org/2000/svg">
<path fill-rule="evenodd" clip-rule="evenodd" d="M27.5 5C31.6421 5 35 8.35786 35 12.5L35.0002 15.4267C35.7821 15.1504 36.6235 15 37.5 15H47.5C51.6421 15 55 18.3579 55 22.5V47.5C55 51.6421 51.6421 55 47.5 55H12.5C8.35786 55 5 51.6421 5 47.5V12.5C5 8.35786 8.35786 5 12.5 5H27.5ZM27.5 10H12.5C11.1193 10 10 11.1193 10 12.5V47.5C10 48.8807 11.1193 50 12.5 50H30V12.5C30 11.1193 28.8807 10 27.5 10ZM47.5 20H37.5C36.1193 20 35 21.1193 35 22.5V50H47.5C48.8807 50 50 48.8807 50 47.5V22.5C50 21.1193 48.8807 20 47.5 20ZM22.5 35C23.8807 35 25 36.1193 25 37.5C25 38.8807 23.8807 40 22.5 40H17.5C16.1193 40 15 38.8807 15 37.5C15 36.1193 16.1193 35 17.5 35H22.5ZM45 35C46.3807 35 47.5 36.1193 47.5 37.5C47.5 38.8807 46.3807 40 45 40H40C38.6193 40 37.5 38.8807 37.5 37.5C37.5 36.1193 38.6193 35 40 35H45ZM22.5 25C23.8807 25 25 26.1193 25 27.5C25 28.8807 23.8807 30 22.5 30H17.5C16.1193 30 15 28.8807 15 27.5C15 26.1193 16.1193 25 17.5 25H22.5ZM45 25C46.3807 25 47.5 26.1193 47.5 27.5C47.5 28.8807 46.3807 30 45 30H40C38.6193 30 37.5 28.8807 37.5 27.5C37.5 26.1193 38.6193 25 40 25H45ZM22.5 15C23.8807 15 25 16.1193 25 17.5C25 18.8807 23.8807 20 22.5 20H17.5C16.1193 20 15 18.8807 15 17.5C15 16.1193 16.1193 15 17.5 15H22.5Z" fill="black"/>
</svg>
