<svg width="61" height="61" viewBox="0 0 61 61" fill="none" xmlns="http://www.w3.org/2000/svg">
<path d="M38.2001 52.5448C33.5258 54.118 28.473 54.1678 23.7686 52.6871C19.0642 51.2065 14.9508 48.2716 12.0203 44.3048C9.08967 40.338 7.49301 35.5438 7.46 30.612C7.42698 25.6803 8.95932 20.8651 11.8365 16.8595C14.7137 12.8538 18.7875 9.86412 23.4716 8.3206C28.1558 6.77707 33.2088 6.75927 37.9037 8.26976C42.5986 9.78026 46.6933 12.7412 49.5987 16.7265C52.504 20.7118 54.0702 25.516 54.072 30.4479C53.9966 32.3383 53.7678 34.2195 53.3876 36.0729" stroke="black" stroke-width="2.8125"/>
<path d="M36.2594 48.2135C34.5827 50.1184 32.7446 51.875 30.7656 53.4635" stroke="black" stroke-width="2.8125"/>
<path d="M30.7656 6.86975C37.0567 12.3662 40.9495 20.1046 41.6125 28.4323C41.7486 29.9439 41.7768 31.4634 41.6969 32.9791" stroke="black" stroke-width="2.8125"/>
<path d="M30.7655 6.86975C27.3522 9.84489 24.61 13.5114 22.7206 17.6263C20.8312 21.7412 19.8378 26.2107 19.8062 30.7385C19.8062 45.926 26.6312 50.426 30.7374 53.4635" stroke="black" stroke-width="2.8125"/>
<path d="M10.4873 18.9635H51.1561" stroke="black" stroke-width="2.8125"/>
<path d="M30.7656 6.86035V53.4635" stroke="black" stroke-width="2.8125"/>
<path d="M11.125 42.9447H35.4906" stroke="black" stroke-width="2.8125"/>
<path d="M7.45947 30.7385L54.072 30.1666" stroke="black" stroke-width="2.8125"/>
<path d="M50.9877 53.7447L55.1409 49.5822L47.6409 42.0822L51.9065 39.3541C51.9686 39.3174 52.0182 39.2626 52.0485 39.1971C52.0788 39.1316 52.0886 39.0584 52.0764 38.9872C52.0642 38.916 52.0306 38.8503 51.9802 38.7986C51.9298 38.7469 51.8648 38.7118 51.794 38.6978L37.4596 35.3416C37.4004 35.3295 37.3391 35.3323 37.2813 35.3497C37.2234 35.3671 37.1708 35.3986 37.1281 35.4413C37.0854 35.484 37.0539 35.5367 37.0365 35.5945C37.0191 35.6524 37.0163 35.7136 37.0284 35.7728L40.1409 50.3791C40.1558 50.4501 40.1916 50.515 40.2435 50.5657C40.2955 50.6163 40.3614 50.6503 40.4328 50.6634C40.5041 50.6764 40.5778 50.668 40.6443 50.639C40.7109 50.6101 40.7673 50.5621 40.8065 50.501L43.4877 46.2447L50.9877 53.7447Z" stroke="black" stroke-width="2.8125"/>
</svg>
